# xmcd
#
# Track frame offsets: 
#        150
#        20701
#        38380
#        59952
#        70573
#        90760
#        111562
#        127961
#        146771
#        166441
#
# Disc length: 2493 seconds
#
# Revision: 1
# Processed by: cddbd v1.5.2PL0 Copyright (c) Steve Scherf et al.
# Submitted via: ExactAudioCopyFreeDBPlugin 1.0
#
DISCID=8709bb0a
DTITLE=松山千春 - 生きている
DYEAR=2013
DGENRE=JPop
TTITLE0=心
TTITLE1=わずかな笑顔
TTITLE2=最後の恋（アルバム・ヴァージョン）
TTITLE3=時は流れる
TTITLE4=ボサノヴァ
TTITLE5=生きている
TTITLE6=北風吹く
TTITLE7=ドンマイ
TTITLE8=そんな愛
TTITLE9=まだまだ
EXTD=
EXTT0=
EXTT1=
EXTT2=
EXTT3=
EXTT4=
EXTT5=
EXTT6=
EXTT7=
EXTT8=
EXTT9=
PLAYORDER=
